<?xml version="1.0" standalone="no"?>
<!DOCTYPE svg PUBLIC "-//W3C//DTD SVG 20010904//EN"
 "http://www.w3.org/TR/2001/REC-SVG-20010904/DTD/svg10.dtd">
<svg version="1.0" xmlns="http://www.w3.org/2000/svg"
 width="144.000000pt" height="144.000000pt" viewBox="0 0 144.000000 144.000000"
 preserveAspectRatio="xMidYMid meet">
<metadata>
Created by potrace 1.10, written by Peter Selinger 2001-2011
</metadata>
<g transform="translate(0.000000,144.000000) scale(0.100000,-0.100000)"
fill="#282c34" stroke="none">
<path d="M269 1271 l-39 -39 0 -522 0 -522 39 -39 39 -39 402 0 402 0 39 39
39 39 0 383 0 384 -178 178 -177 177 -264 0 -263 0 -39 -39z m813 -373 c-5 -5
-76 -7 -158 -6 l-149 3 -3 145 c-1 79 0 151 3 159 4 11 51 -30 160 -139 85
-85 151 -158 147 -162z m-137 -248 l0 -55 -235 0 -235 0 -3 44 c-6 76 -19 72
240 69 l233 -3 0 -55z m-120 -240 l0 -55 -175 0 -175 0 -3 44 c-6 75 -13 72
180 69 l173 -3 0 -55z"/>
</g>
</svg>
