<?xml version="1.0" standalone="no"?>
<!DOCTYPE svg PUBLIC "-//W3C//DTD SVG 20010904//EN"
 "http://www.w3.org/TR/2001/REC-SVG-20010904/DTD/svg10.dtd">
<svg version="1.0" xmlns="http://www.w3.org/2000/svg"
 width="288.000000pt" height="288.000000pt" viewBox="0 0 288.000000 288.000000"
 preserveAspectRatio="xMidYMid meet">
<metadata>
Created by potrace 1.10, written by Peter Selinger 2001-2011
</metadata>
<g transform="translate(0.000000,288.000000) scale(0.100000,-0.100000)"
fill="#6b717d" stroke="none">
<path d="M410 2485 c-14 -8 -32 -14 -41 -15 -25 0 -88 -69 -107 -115 -15 -36
-17 -109 -17 -685 0 -717 -2 -689 68 -760 67 -68 6 -64 1117 -65 1118 0 1047
-4 1120 68 66 65 64 44 64 757 0 713 2 692 -64 757 -72 72 -4 68 -1115 70
-853 2 -1004 0 -1025 -12z m1985 -815 l0 -605 -965 0 -965 0 -3 595 c-1 327 0
601 3 608 3 10 202 12 967 10 l963 -3 0 -605z"/>
<path d="M1180 1929 l-145 -148 -157 -1 -158 0 0 -110 0 -110 196 0 197 0 74
75 c41 41 80 75 87 75 14 0 46 -31 46 -45 0 -14 195 -404 202 -405 4 0 76 67
160 150 l153 150 153 0 152 0 0 110 0 110 -195 0 -195 0 -74 -76 c-49 -49 -81
-75 -93 -72 -12 2 -53 73 -128 222 -61 121 -115 220 -120 222 -6 1 -75 -65
-155 -147z"/>
<path d="M1198 643 l-3 -58 -177 -3 -178 -2 0 -110 0 -110 590 0 590 0 0 110
0 110 -177 2 -178 3 -3 58 -3 57 -229 0 -229 0 -3 -57z"/>
</g>
</svg>
