<?xml version="1.0" standalone="no"?>
<!DOCTYPE svg PUBLIC "-//W3C//DTD SVG 20010904//EN"
 "http://www.w3.org/TR/2001/REC-SVG-20010904/DTD/svg10.dtd">
<svg version="1.0" xmlns="http://www.w3.org/2000/svg"
 width="144.000000pt" height="144.000000pt" viewBox="0 0 144.000000 144.000000"
 preserveAspectRatio="xMidYMid meet">
<metadata>
Created by potrace 1.10, written by Peter Selinger 2001-2011
</metadata>
<g transform="translate(0.000000,144.000000) scale(0.100000,-0.100000)"
fill="#6b717d" stroke="none">
<path d="M190 1223 c-70 -31 -70 -32 -70 -508 0 -374 2 -429 17 -463 31 -72
29 -72 570 -72 547 0 545 0 576 74 15 36 17 90 17 459 0 474 -1 480 -72 510
-34 15 -92 17 -521 16 -417 0 -487 -2 -517 -16z m1005 -573 l0 -365 -485 0
-485 0 -3 355 c-1 195 0 361 3 368 3 10 105 12 487 10 l483 -3 0 -365z"/>
<path d="M417 833 c21 -27 50 -59 66 -73 16 -14 27 -35 27 -50 0 -15 -11 -36
-27 -50 -16 -14 -45 -46 -66 -73 l-38 -47 54 0 55 0 61 68 c92 100 91 106 -15
221 -45 49 -49 51 -101 51 l-54 0 38 -47z"/>
<path d="M720 590 l0 -50 170 0 170 0 0 50 0 50 -170 0 -170 0 0 -50z"/>
</g>
</svg>
